<svg width="867" height="179" viewBox="0 0 867 179" fill="none" xmlns="http://www.w3.org/2000/svg">
<rect width="867" height="179" fill="#F5F5F5"/>
<path d="M866.019 177.908C866.014 157.165 865.987 27.4783 865.988 33.4585C864.186 33.4348 862.855 33.4153 861.994 33.3999C861.014 33.3825 859.962 33.3784 859.014 33.3612C849.471 33.1883 838.663 32.8695 831.839 32.5814C823.696 32.2376 811.128 31.4311 794.134 30.1618C789.677 29.7901 785.128 29.3609 780.487 28.8744C775.846 28.3879 768.829 27.6046 759.437 26.5247C749.234 26.0243 743.32 25.1222 732.506 22.6552C726.687 21.7388 722.229 21.0071 719.133 20.46C715.913 19.8911 712.893 19.3804 709.461 18.7477C705.847 18.0816 701.805 17.2935 697.728 16.7042C697.716 16.7024 691.737 15.535 690.158 15.2805C690.001 15.2554 689.486 15.1436 689.436 15.1398C689.196 15.1214 688.344 14.9248 686.138 14.5213C683.932 14.1178 679.273 13.2852 678.932 13.2387C678.8 13.2206 678.865 13.205 678.719 13.172C678.487 13.1199 678.039 13.045 677.814 13.0048C676.881 12.8385 675.966 12.6889 674.955 12.5041C674.741 12.4649 674.524 12.4253 674.307 12.3853C671.275 11.8286 667.938 11.2001 664.368 10.5836C651.784 8.41077 636.521 5.91791 622.381 4.33892C614.609 3.47107 607.165 2.69347 600.508 2.22642C587.013 1.27966 577.069 1.17446 576.412 1.13819C570.996 0.839098 563.108 0.941188 552.747 1.44448C560.855 1.00948 560.444 1.00956 551.515 1.44474C545.107 2.07234 540.43 2.53799 537.485 2.84165C535.851 3.01013 534.078 3.35621 532.485 3.60704C529.891 4.01539 524.926 4.82995 520.285 5.83323C513.78 7.23963 507.562 8.88075 506.319 9.09795C491.226 12.5178 473.389 20.5825 469.52 21.1352C468.538 21.2755 452.365 27.9532 432.989 36.8949C415.169 45.1182 401.058 52.5238 376.163 63.5919C355.93 72.5875 339.47 78.8381 335.122 80.187C333.062 80.8259 323.766 84.0466 312.73 86.8695C305.246 88.784 295.852 90.603 289.569 91.6456C283.286 92.6882 274.608 93.9969 265.54 94.1531C261.841 94.2169 255.689 94.1544 252.181 94.156C251.423 94.1563 243.633 94.0958 235.03 94.5688C224.687 95.1375 212.906 96.3151 207.243 97.141C198.192 98.4612 187.898 100.203 181.355 101.757C178.107 102.528 168.74 104.6 160.321 107.099C155.899 108.411 144.219 112.016 134.761 115.332C125.948 118.423 119.195 121.284 118.606 121.259C117.477 121.21 105.298 126.84 83.4594 134.373C78.8174 135.974 73.6142 138.033 64.1908 140.87C61.2862 141.745 57.1666 142.844 53.218 143.886C50.9434 144.486 31.2458 152.824 29.4478 153.42C20.4195 156.41 10.6107 168.57 0.0188599 178.092L866.019 177.908Z" fill="#333333" fill-opacity="0.09"/>
</svg>
